HIERARCHY
ROOT hip
{
  OFFSET 0 0 0
  CHANNELS 6 Xposition Yposition Zposition Zrotation Yrotation Xrotation
  JOINT abdomen
  {
    OFFSET 0 20.6881 -0.73152
    CHANNELS 3 Zrotation Xrotation Yrotation
    JOINT chest
    {
      OFFSET 0 11.7043 -0.48768
      CHANNELS 3 Zrotation Xrotation Yrotation
      JOINT neck
      {
        OFFSET 0 22.1894 -2.19456
        CHANNELS 3 Zrotation Xrotation Yrotation
        JOINT head
        {
          OFFSET -0.24384 7.07133 1.2192
          CHANNELS 3 Zrotation Xrotation Yrotation
          JOINT leftEye
          {
            OFFSET 4.14528 8.04674 8.04672
            CHANNELS 3 Zrotation Xrotation Yrotation
            End Site
            {
              OFFSET 1 0 0
            }
          }
          JOINT rightEye
          {
            OFFSET -3.6576 8.04674 8.04672
            CHANNELS 3 Zrotation Xrotation Yrotation
            End Site
            {
              OFFSET 1 0 0
            }
          }
        }
      }
      JOINT rCollar
      {
        OFFSET -2.68224 19.2634 -4.8768
        CHANNELS 3 Zrotation Xrotation Yrotation
        JOINT rShldr
        {
          OFFSET -8.77824 -1.95073 1.46304
          CHANNELS 3 Zrotation Xrotation Yrotation
          JOINT rForeArm
          {
            OFFSET -28.1742 -1.7115 0.48768
            CHANNELS 3 Zrotation Xrotation Yrotation
            JOINT rHand
            {
              OFFSET -22.5879 0.773209 7.07136
              CHANNELS 3 Zrotation Xrotation Yrotation
              JOINT rThumb1
              {
                OFFSET -1.2192 -0.487915 3.41376
                CHANNELS 3 Zrotation Xrotation Yrotation
                JOINT rThumb2
                {
                  OFFSET -3.37035 -0.52449 3.41376
                  CHANNELS 3 Zrotation Xrotation Yrotation
                  End Site
                  {
                    OFFSET -1.78271 -1.18214 1.43049
                  }
                }
              }
              JOINT rIndex1
              {
                OFFSET -7.75947 0.938293 5.60832
                CHANNELS 3 Zrotation Xrotation Yrotation
                JOINT rIndex2
                {
                  OFFSET -2.54057 -0.884171 1.56538
                  CHANNELS 3 Zrotation Xrotation Yrotation
                  End Site
                  {
                    OFFSET -1.62519 -0.234802 1.16502
                  }
                }
              }
              JOINT rMid1
              {
                OFFSET -8.24714 1.18213 3.41376
                CHANNELS 3 Zrotation Xrotation Yrotation
                JOINT rMid2
                {
                  OFFSET -3.10165 -0.590103 1.0647
                  CHANNELS 3 Zrotation Xrotation Yrotation
                  End Site
                  {
                    OFFSET -2.48547 -0.328903 0.83742
                  }
                }
              }
              JOINT rRing1
              {
                OFFSET -8.82822 0.546677 1.51678
                CHANNELS 3 Zrotation Xrotation Yrotation
                JOINT rRing2
                {
                  OFFSET -2.60934 -0.819778 -0.0198488
                  CHANNELS 3 Zrotation Xrotation Yrotation
                  End Site
                  {
                    OFFSET -2.33842 -0.294052 0.168128
                  }
                }
              }
              JOINT rPinky1
              {
                OFFSET -8.27202 -0.0477905 -0.4584
                CHANNELS 3 Zrotation Xrotation Yrotation
                JOINT rPinky2
                {
                  OFFSET -1.82734 -0.647385 -0.700984
                  CHANNELS 3 Zrotation Xrotation Yrotation
                  End Site
                  {
                    OFFSET -1.69225 -0.51767 -0.607171
                  }
                }
              }
            }
          }
        }
      }
      JOINT lCollar
      {
        OFFSET 2.68224 19.2634 -4.8768
        CHANNELS 3 Zrotation Xrotation Yrotation
        JOINT lShldr
        {
          OFFSET 8.77824 -1.95073 1.46304
          CHANNELS 3 Zrotation Xrotation Yrotation
          JOINT lForeArm
          {
            OFFSET 28.1742 -1.7115 0.48768
            CHANNELS 3 Zrotation Xrotation Yrotation
            JOINT lHand
            {
              OFFSET 22.5879 0.773209 7.07136
              CHANNELS 3 Zrotation Xrotation Yrotation
              JOINT lThumb1
              {
                OFFSET 1.2192 -0.487915 3.41376
                CHANNELS 3 Zrotation Xrotation Yrotation
                JOINT lThumb2
                {
                  OFFSET 3.37035 -0.52449 3.41376
                  CHANNELS 3 Zrotation Xrotation Yrotation
                  End Site
                  {
                    OFFSET 1.78271 -1.18214 1.43049
                  }
                }
              }
              JOINT lIndex1
              {
                OFFSET 7.75947 0.938293 5.60832
                CHANNELS 3 Zrotation Xrotation Yrotation
                JOINT lIndex2
                {
                  OFFSET 2.54057 -0.884171 1.56538
                  CHANNELS 3 Zrotation Xrotation Yrotation
                  End Site
                  {
                    OFFSET 1.62519 -0.234802 1.16502
                  }
                }
              }
              JOINT lMid1
              {
                OFFSET 8.24714 1.18213 3.41376
                CHANNELS 3 Zrotation Xrotation Yrotation
                JOINT lMid2
                {
                  OFFSET 3.10165 -0.590103 1.0647
                  CHANNELS 3 Zrotation Xrotation Yrotation
                  End Site
                  {
                    OFFSET 2.48547 -0.328903 0.83742
                  }
                }
              }
              JOINT lRing1
              {
                OFFSET 8.82822 0.546677 1.51678
                CHANNELS 3 Zrotation Xrotation Yrotation
                JOINT lRing2
                {
                  OFFSET 2.60934 -0.819778 -0.0198488
                  CHANNELS 3 Zrotation Xrotation Yrotation
                  End Site
                  {
                    OFFSET 2.33842 -0.294052 0.168128
                  }
                }
              }
              JOINT lPinky1
              {
                OFFSET 8.27202 -0.0477905 -0.4584
                CHANNELS 3 Zrotation Xrotation Yrotation
                JOINT lPinky2
                {
                  OFFSET 1.82734 -0.647385 -0.700984
                  CHANNELS 3 Zrotation Xrotation Yrotation
                  End Site
                  {
                    OFFSET 1.69225 -0.51767 -0.607171
                  }
                }
              }
            }
          }
        }
      }
    }
  }
  JOINT rButtock
  {
    OFFSET -8.77824 4.35084 1.2192
    CHANNELS 3 Zrotation Xrotation Yrotation
    JOINT rThigh
    {
      OFFSET 0 -1.70687 -2.19456
      CHANNELS 3 Zrotation Xrotation Yrotation
      JOINT rShin
      {
        OFFSET 0 -36.8199 0.73152
        CHANNELS 3 Zrotation Xrotation Yrotation
        JOINT rFoot
        {
          OFFSET 0.73152 -45.1104 -5.12064
          CHANNELS 3 Zrotation Xrotation Yrotation
          End Site
          {
            OFFSET -1.1221 -3.69964 12.103
          }
        }
      }
    }
  }
  JOINT lButtock
  {
    OFFSET 8.77824 4.35084 1.2192
    CHANNELS 3 Zrotation Xrotation Yrotation
    JOINT lThigh
    {
      OFFSET 0 -1.70687 -2.19456
      CHANNELS 3 Zrotation Xrotation Yrotation
      JOINT lShin
      {
        OFFSET 0 -36.8199 0.73152
        CHANNELS 3 Zrotation Xrotation Yrotation
        JOINT lFoot
        {
          OFFSET -0.73152 -45.1104 -5.12064
          CHANNELS 3 Zrotation Xrotation Yrotation
          End Site
          {
            OFFSET 1.1221 -3.69964 12.103
          }
        }
      }
    }
  }
}
MOTION
Frames:	4
Frame Time:	0.00833333
-26.4387 85.4367 56.2704 3.087 -12.8287 -5.5695 1.01542 14.0213 3.86617 -1.4556 -5.2699 1.02795 -8.72669 -1.61539 3.22625 3.83234 26.0297 8.08779 -0.0 0.0 0.0 -0.0 0.0 0.0 -7.42569e-14 -1.35806e-13 5.40082e-13 77.3041 12.5103 -1.90622 -15.5891 -8.31117 28.8095 -0.0189767 3.93363 0.553711 -1.64071e-09 5.30587e-09 2.06894e-09 -2.83099e-09 9.18101e-09 3.58897e-09 -1.64069e-09 5.30587e-09 2.06892e-09 7.73091 5.47488 0.417314 -1.64071e-09 5.30587e-09 2.06893e-09 2.90554 0.965183 0.102902 -1.6407e-09 5.30587e-09 2.06894e-09 10.2786 0.731801 0.0259123 -1.64071e-09 5.30587e-09 2.06894e-09 2.22167 -0.733487 -0.20892 -7.4425e-14 -1.3581e-13 5.39865e-13 -80.7218 5.67499 2.62674 14.3033 -7.2018 -26.1665 0.0445431 6.00511 -0.84711 -1.77857e-09 -6.24922e-09 1.45986e-09 -3.06783e-09 -1.08054e-08 2.54212e-09 -1.77857e-09 -6.24922e-09 1.45988e-09 -7.73091 5.47488 -0.417314 -1.77857e-09 -6.24922e-09 1.45987e-09 -2.90554 0.965183 -0.102902 -1.77857e-09 -6.24922e-09 1.45987e-09 -10.2786 0.731801 -0.0259123 -1.77856e-09 -6.24922e-09 1.45986e-09 -2.22167 -0.733487 0.20892 -2.03217e-16 0.0 -3.88251e-19 -6.73693 -3.10359 -1.58787 -0.148128 28.1677 0.517198 -5.31214 -8.70855 -20.0781 2.03217e-16 0.0 3.88251e-19 14.8693 -11.6909 -0.873345 0.117349 24.2492 -0.197812 -0.515079 10.3492 8.32348
-26.3946 85.3417 56.5714 1.2831 -12.9488 -5.79 1.80608 14.2325 3.80566 -1.60946 -5.25318 1.02843 -8.69706 -1.65706 3.23125 3.82256 26.094 8.1051 -0.0 0.0 0.0 -0.0 0.0 0.0 -6.82689e-14 -1.44316e-13 4.56459e-13 77.2511 12.3818 -2.0055 -15.5198 -8.24857 28.6653 -0.0200491 4.03894 0.568587 -1.37479e-09 4.27773e-09 1.82277e-09 -2.37192e-09 7.4019e-09 3.16136e-09 -1.37477e-09 4.27772e-09 1.82275e-09 7.73091 5.47488 0.417314 -1.37479e-09 4.27773e-09 1.82277e-09 2.90554 0.965183 0.102902 -1.37478e-09 4.27773e-09 1.82277e-09 10.2786 0.731801 0.0259123 -1.37479e-09 4.27773e-09 1.82278e-09 2.22167 -0.733487 -0.20892 -6.84497e-14 -1.44321e-13 4.56261e-13 -80.7942 5.80494 2.4844 14.2582 -7.16473 -26.0751 0.0460818 6.11497 -0.862714 -1.4472e-09 -5.29392e-09 1.08063e-09 -2.49665e-09 -9.154e-09 1.88334e-09 -1.4472e-09 -5.29393e-09 1.08065e-09 -7.73091 5.47488 -0.417314 -1.4472e-09 -5.29393e-09 1.08064e-09 -2.90554 0.965183 -0.102902 -1.44721e-09 -5.29393e-09 1.08064e-09 -10.2786 0.731801 -0.0259123 -1.44719e-09 -5.29393e-09 1.08063e-09 -2.22167 -0.733487 0.20892 -2.03217e-16 0.0 -3.88251e-19 -6.37371 -2.72901 -1.41687 -0.148573 28.1923 0.516723 -5.32411 -8.51712 -20.3738 2.03217e-16 0.0 3.88251e-19 15.4817 -11.2957 -0.893979 0.119217 24.5357 -0.212189 -0.402852 10.2556 7.37044
-25.8585 85.2848 56.8086 1.1574 -12.6186 -5.7195 1.63579 14.0565 3.74551 -1.57182 -5.21333 1.00685 -8.68481 -1.67112 3.22616 3.89462 26.1658 8.0841 -0.0 0.0 0.0 -0.0 0.0 0.0 -5.5056e-14 -1.36005e-13 3.75581e-13 77.2229 12.2298 -2.16144 -15.4615 -8.19633 28.5441 -0.0207422 4.10616 0.578084 -1.14038e-09 3.27704e-09 1.57809e-09 -1.96718e-09 5.67012e-09 2.73653e-09 -1.14037e-09 3.27704e-09 1.57807e-09 7.73091 5.47488 0.417314 -1.14039e-09 3.27704e-09 1.57808e-09 2.90554 0.965183 0.102902 -1.14038e-09 3.27704e-09 1.57808e-09 10.2786 0.731801 0.0259123 -1.14039e-09 3.27704e-09 1.57809e-09 2.22167 -0.733487 -0.20892 -5.5209e-14 -1.36008e-13 3.75394e-13 -80.8749 5.87979 2.3467 14.2048 -7.12093 -25.9669 0.0494342 6.34489 -0.895392 -1.19207e-09 -4.44226e-09 6.79015e-10 -2.05756e-09 -7.68208e-09 1.18629e-09 -1.19208e-09 -4.44226e-09 6.79034e-10 -7.73091 5.47488 -0.417314 -1.19207e-09 -4.44226e-09 6.79022e-10 -2.90554 0.965183 -0.102902 -1.19208e-09 -4.44226e-09 6.79023e-10 -10.2786 0.731801 -0.0259123 -1.19206e-09 -4.44226e-09 6.79014e-10 -2.22167 -0.733487 0.20892 -2.03217e-16 0.0 -3.88251e-19 -7.01093 -2.82726 -1.5079 -0.151754 28.4799 0.521534 -5.30223 -8.4189 -20.4058 2.03217e-16 0.0 3.88251e-19 15.0878 -11.1368 -1.18396 0.118988 24.6186 -0.222627 -0.300806 10.2442 6.35841
-24.6259 85.2325 56.927 3.4482 -11.6669 -5.1426 0.879776 13.6369 3.6835 -1.42118 -5.15928 0.970851 -8.69124 -1.66607 3.21342 4.03467 26.2415 8.03474 -0.0 0.0 0.0 -0.0 0.0 0.0 -3.7416e-14 -1.1455e-13 2.81221e-13 77.2073 12.0633 -2.35067 -15.4081 -8.14869 28.4328 -0.0212117 4.15244 0.584622 -8.54196e-10 2.106e-09 1.28088e-09 -1.47295e-09 3.64339e-09 2.22057e-09 -8.54188e-10 2.106e-09 1.28087e-09 7.73091 5.47488 0.417314 -8.54197e-10 2.106e-09 1.28088e-09 2.90554 0.965183 0.102902 -8.54192e-10 2.106e-09 1.28088e-09 10.2786 0.731801 0.0259123 -8.54201e-10 2.106e-09 1.28089e-09 2.22167 -0.733487 -0.20892 -3.75127e-14 -1.1455e-13 2.81047e-13 -80.9633 5.93679 2.20825 14.1485 -7.07499 -25.8532 0.0542781 6.65197 -0.939102 -9.04976e-10 -3.44659e-09 2.20601e-10 -1.56358e-09 -5.96136e-09 3.90638e-10 -9.04978e-10 -3.44659e-09 2.20615e-10 -7.73091 5.47488 -0.417314 -9.04975e-10 -3.44659e-09 2.20606e-10 -2.90554 0.965183 -0.102902 -9.0498e-10 -3.44659e-09 2.20606e-10 -10.2786 0.731801 -0.0259123 -9.04967e-10 -3.44659e-09 2.20599e-10 -2.22167 -0.733487 0.20892 -2.03217e-16 0.0 -3.88251e-19 -8.27727 -3.22634 -1.76773 -0.156904 28.9413 0.529735 -5.25466 -8.37392 -20.2569 2.03217e-16 0.0 3.88251e-19 14.0551 -11.1246 -1.66955 0.117286 24.5752 -0.231035 -0.196832 10.2714 5.26061
